<?xml version="1.0" encoding="UTF-8"?>
<svg id="Layer_1" xmlns="http://www.w3.org/2000/svg" version="1.1" viewBox="0 0 59.529 150.239">
  <!-- Generator: Adobe Illustrator 29.6.1, SVG Export Plug-In . SVG Version: 2.1.1 Build 9)  -->
  <defs>
    <style>
      .st0 {
        fill: #363a44;
      }

      .st1 {
        fill: #30312e;
      }

      .st2 {
        fill: #4d4d4d;
      }

      .st3 {
        fill: #004e29;
      }

      .st4 {
        fill: #fff;
      }

      .st5 {
        fill: #3d3f38;
      }

      .st6 {
        fill: #dbddda;
      }

      .st7 {
        fill: #2a2d2e;
      }

      .st8 {
        fill: #ecf6fd;
      }

      .st9 {
        fill: #3c3;
      }

      .st10 {
        fill: #ccc;
      }

      .st11 {
        fill: #958863;
      }

      .st12 {
        fill: #fbb03b;
      }
    </style>
  </defs>
  <polygon class="st3" points="59.528 147.554 59.528 147.555 59.529 147.555 59.528 147.554"/>
  <path class="st2" d="M58.99,8.48c.17-.09.35-.14.54-.14v-1.53c0-.31-.12-.6-.33-.81-.21-.21-.5-.33-.8-.33H1.13c-.62,0-1.13.51-1.13,1.14v1.53c.19,0,.37.05.54.14.41.2.67.61.67,1.07,0,.45-.26.86-.67,1.06-.17.09-.35.14-.54.15v4.78c.19,0,.37.05.54.14.59.28.84.99.56,1.58-.12.24-.32.44-.56.55-.17.09-.35.14-.54.15v4.78c.19,0,.37.05.54.14.41.2.67.61.67,1.07,0,.45-.26.86-.67,1.07v-.01c-.17.09-.35.14-.54.15v4.78c.19,0,.37.05.54.14.41.2.67.61.67,1.07,0,.45-.26.86-.67,1.06-.17.09-.35.14-.54.15v4.78c.19,0,.37.05.54.14.41.2.67.61.67,1.07,0,.45-.26.86-.67,1.06-.17.09-.35.14-.54.15v4.78c.19,0,.37.05.54.14.41.2.67.61.67,1.07,0,.45-.26.86-.67,1.06-.17.09-.35.14-.54.15v4.78c.19,0,.37.05.54.14.41.2.67.61.67,1.07,0,.45-.26.86-.67,1.06-.17.09-.35.14-.54.15v4.78c.19,0,.37.05.54.14.41.2.67.61.67,1.07,0,.45-.26.86-.67,1.06-.17.09-.35.14-.54.15v4.78c.19,0,.37.05.54.14.41.2.67.61.67,1.07,0,.45-.26.86-.67,1.06-.17.09-.35.14-.54.15v4.78c.19,0,.37.05.54.14.41.2.67.61.67,1.07,0,.45-.26.86-.67,1.06-.17.09-.35.14-.54.15v4.78c.19,0,.37.05.54.14.41.2.67.61.67,1.07,0,.45-.26.86-.67,1.06-.17.09-.35.14-.54.15v4.78c.19,0,.37.05.54.14.41.2.67.61.67,1.07,0,.45-.26.86-.67,1.06-.17.09-.35.14-.54.15v4.78c.19,0,.37.05.54.14.41.2.67.61.67,1.07,0,.45-.26.86-.67,1.06-.17.09-.35.14-.54.15v4.78c.19,0,.37.05.54.14.41.2.67.61.67,1.07,0,.45-.26.86-.67,1.06-.17.09-.35.14-.54.15v4.78c.19,0,.37.05.54.14.41.2.67.61.67,1.07,0,.45-.26.86-.67,1.06-.17.09-.35.14-.54.15v4.78c.19,0,.37.05.54.14.41.2.67.61.67,1.07,0,.45-.26.86-.67,1.06-.17.09-.35.14-.54.15v4.78c.19,0,.37.05.54.14.41.2.67.61.67,1.07,0,.45-.26.86-.67,1.06-.17.09-.35.14-.54.15v4.78c.19,0,.37.05.54.14.41.2.67.61.67,1.07,0,.45-.26.86-.67,1.06-.17.09-.35.14-.54.15v4.78c.19,0,.37.05.54.14.41.2.67.61.67,1.07,0,.45-.26.86-.67,1.06-.17.09-.35.14-.54.15v4.78c.19,0,.37.05.54.14.41.2.67.61.67,1.07,0,.45-.26.86-.67,1.06-.16.09-.35.14-.54.15v1.54c0,.3.12.59.33.8v.01c.22.21.5.33.8.33h20.22c.01-.19.06-.37.15-.54.28-.59.99-.84,1.58-.55.24.11.44.31.55.55.09.17.14.35.14.54h4.78c.01-.19.06-.37.15-.54.28-.59.99-.84,1.58-.55.24.11.44.31.55.55.09.17.14.35.14.54h4.79c0-.19.05-.37.14-.54.28-.59.99-.84,1.58-.55.24.11.44.31.55.55.09.16.14.35.14.54h20.22c.63,0,1.14-.51,1.14-1.14v-1.54c-.19-.01-.38-.06-.54-.15-.59-.28-.84-.99-.55-1.58.11-.24.31-.44.55-.55.16-.09.35-.14.54-.14v-4.78c-.19-.01-.38-.06-.54-.15-.59-.28-.84-.99-.55-1.58.11-.24.31-.43.55-.55.16-.09.35-.14.54-.14v-4.78c-.19-.01-.38-.06-.54-.15-.59-.28-.84-.99-.55-1.58.11-.24.31-.43.55-.55.16-.09.35-.14.54-.14v-4.78c-.19-.01-.38-.06-.54-.15-.59-.28-.84-.99-.55-1.58.11-.24.31-.43.55-.55.16-.09.35-.14.54-.14v-4.78c-.19-.01-.38-.06-.54-.15-.59-.28-.84-.99-.55-1.58.11-.24.31-.43.55-.55.16-.09.35-.14.54-.14v-4.78c-.19-.01-.38-.06-.54-.15-.59-.28-.84-.99-.55-1.58.11-.24.31-.43.55-.55.16-.09.35-.14.54-.14v-4.78c-.19-.01-.38-.06-.54-.15-.59-.28-.84-.99-.55-1.58.11-.24.31-.43.55-.55.16-.09.35-.14.54-.14v-4.78c-.19-.01-.38-.06-.54-.15-.59-.28-.84-.99-.55-1.58.11-.24.31-.43.55-.55.16-.09.35-.14.54-.14v-4.78c-.19-.01-.38-.06-.54-.15-.59-.28-.84-.99-.55-1.58.11-.24.31-.43.55-.55.16-.09.35-.14.54-.14v-4.78c-.19-.01-.38-.06-.54-.15-.59-.28-.84-.99-.55-1.58.11-.24.31-.43.55-.55.16-.09.35-.14.54-.14v-4.78c-.19-.01-.38-.06-.54-.15-.59-.28-.84-.99-.55-1.58.11-.24.31-.43.55-.55.16-.09.35-.14.54-.14v-4.78c-.19-.01-.38-.06-.54-.15-.59-.28-.84-.99-.55-1.58.11-.24.31-.43.55-.55.16-.09.35-.14.54-.14v-4.78c-.19-.01-.38-.06-.54-.15-.59-.28-.84-.99-.55-1.58.11-.24.31-.43.55-.55.16-.09.35-.14.54-.14v-4.78c-.19-.01-.38-.06-.54-.15-.59-.28-.84-.99-.55-1.58.11-.24.31-.43.55-.55.16-.09.35-.14.54-.14v-4.78c-.19-.01-.38-.06-.54-.15-.59-.28-.84-.99-.55-1.58.11-.24.31-.43.55-.55.16-.09.35-.14.54-.14v-4.78c-.19-.01-.38-.06-.54-.15-.59-.28-.84-.99-.55-1.58.11-.24.31-.43.55-.55.16-.09.35-.14.54-.14v-4.78c-.19-.01-.38-.06-.54-.15-.59-.28-.84-.99-.55-1.58.11-.24.31-.43.55-.55.16-.09.35-.14.54-.14v-4.78c-.19-.01-.38-.05-.54-.14-.59-.29-.84-1-.55-1.59.11-.24.31-.43.55-.55.16-.09.35-.14.54-.14v-4.78c-.19-.01-.38-.06-.54-.15-.59-.28-.84-.99-.55-1.58.11-.24.31-.43.55-.55.16-.09.35-.14.54-.14v-4.78c-.19-.01-.38-.06-.54-.15-.59-.28-.84-.99-.55-1.58.11-.24.31-.43.55-.55ZM15.41,146.2c-.46.46-1.09.74-1.78.74h-.01c-1.39,0-2.52-1.13-2.52-2.52s1.13-2.52,2.52-2.52,2.52,1.13,2.52,2.52c0,.69-.28,1.33-.73,1.78ZM13.63,14v-.01c-1.4,0-2.52-1.13-2.52-2.52s1.12-2.52,2.52-2.52c1.39,0,2.51,1.13,2.51,2.52.01,1.4-1.12,2.53-2.51,2.53ZM22.57,147.54c-.67,0-1.2-.54-1.2-1.2s.53-1.2,1.2-1.2c.66,0,1.2.54,1.2,1.2-.01.66-.54,1.2-1.2,1.2ZM29.76,147.54c-.66,0-1.19-.54-1.19-1.2s.53-1.2,1.2-1.2c.66,0,1.2.54,1.2,1.2-.01.66-.54,1.2-1.21,1.2ZM36.97,147.54c-.67,0-1.21-.54-1.21-1.2s.54-1.2,1.21-1.2c.66,0,1.2.54,1.2,1.2s-.54,1.2-1.2,1.2ZM47.69,146.21c-.45.46-1.09.74-1.78.74-1.39,0-2.52-1.13-2.52-2.52s1.12-2.52,2.52-2.52c1.39,0,2.52,1.13,2.52,2.52,0,.7-.28,1.32-.74,1.78ZM45.91,14c-1.39,0-2.52-1.13-2.52-2.52s1.13-2.52,2.52-2.52,2.52,1.13,2.52,2.52-1.13,2.52-2.52,2.52Z"/>
  <path class="st12" d="M6.54,16.745c-.001-1.09-.885-1.974-1.975-1.975H0v.766h0c.667,0,1.208.542,1.209,1.209,0,.668-.541,1.209-1.209,1.21h0v.765h4.565c1.09-.001,1.974-.885,1.975-1.975M4.565,17.945c-.663,0-1.2-.537-1.2-1.2s.537-1.2,1.2-1.2c.663,0,1.2.537,1.2,1.2s-.537,1.2-1.2,1.2h0"/>
  <path class="st12" d="M6.54,21.971H0v.766h0c.668.001,1.208.542,1.209,1.21,0,.667-.542,1.208-1.209,1.209h0v.765h6.54v-3.95ZM4.565,25.143c-.663,0-1.2-.537-1.2-1.2s.537-1.2,1.2-1.2,1.2.537,1.2,1.2-.537,1.2-1.2,1.2h0"/>
  <path class="st12" d="M6.54,31.146c-.001-1.09-.885-1.974-1.975-1.976H0v.766h0c.668,0,1.21.542,1.21,1.21s-.542,1.21-1.21,1.21h0v.765h4.565c1.09-.002,1.973-.885,1.975-1.975M4.565,32.346c-.663,0-1.2-.537-1.2-1.2s.537-1.2,1.2-1.2,1.2.537,1.2,1.2-.537,1.2-1.2,1.2h0"/>
  <path class="st12" d="M6.54,38.345c-.001-1.09-.885-1.974-1.975-1.976H0v.766h0c.668.001,1.208.542,1.209,1.21,0,.667-.542,1.208-1.209,1.209h0v.765h4.565c1.09,0,1.974-.884,1.975-1.974M4.565,39.545c-.663,0-1.2-.537-1.2-1.2s.537-1.2,1.2-1.2,1.2.537,1.2,1.2-.537,1.2-1.2,1.2h0"/>
  <path class="st12" d="M6.54,45.545c-.001-1.09-.885-1.974-1.975-1.976H0v.766h0c.668.001,1.208.542,1.209,1.21,0,.667-.542,1.208-1.209,1.209h0v.765h4.565c1.09,0,1.974-.884,1.975-1.974M4.565,46.745c-.663,0-1.2-.537-1.2-1.2s.537-1.2,1.2-1.2,1.2.537,1.2,1.2-.537,1.2-1.2,1.2h0"/>
  <path class="st12" d="M6.54,52.745c-.001-1.09-.885-1.974-1.975-1.976H0v.766h0c.668.001,1.208.542,1.209,1.21,0,.667-.542,1.208-1.209,1.209h0v.765h4.565c1.09,0,1.974-.884,1.975-1.974M4.565,53.945c-.663,0-1.2-.537-1.2-1.2s.537-1.2,1.2-1.2,1.2.537,1.2,1.2-.537,1.2-1.2,1.2h0"/>
  <path class="st12" d="M6.54,57.97H0v.766h0c.668.001,1.208.542,1.209,1.21,0,.667-.542,1.208-1.209,1.209h0v.765h6.54v-3.95ZM4.565,61.142c-.663,0-1.2-.537-1.2-1.2s.537-1.2,1.2-1.2,1.2.537,1.2,1.2-.537,1.2-1.2,1.2h0"/>
  <path class="st12" d="M6.54,67.145c-.001-1.09-.885-1.974-1.975-1.975H0v.766h0c.667,0,1.208.542,1.209,1.209,0,.668-.541,1.209-1.209,1.21h0v.765h4.565c1.09-.001,1.974-.885,1.975-1.975M4.565,68.345c-.663,0-1.2-.537-1.2-1.2s.537-1.2,1.2-1.2,1.2.537,1.2,1.2h0c0,.663-.537,1.2-1.2,1.2"/>
  <path class="st12" d="M6.54,74.345c-.001-1.09-.885-1.974-1.975-1.975H0v.766h0c.667,0,1.208.542,1.209,1.209,0,.668-.541,1.209-1.209,1.21h0v.765h4.565c1.09-.001,1.974-.885,1.975-1.975M4.565,75.545c-.663,0-1.2-.537-1.2-1.2s.537-1.2,1.2-1.2,1.2.537,1.2,1.2h0c0,.663-.537,1.2-1.2,1.2"/>
  <path class="st12" d="M6.54,81.545c-.001-1.09-.885-1.974-1.975-1.975H0v.766h0c.667,0,1.208.542,1.209,1.209,0,.668-.541,1.209-1.209,1.21h0v.765h4.565c1.09-.001,1.974-.885,1.975-1.975M4.565,82.745c-.663,0-1.2-.537-1.2-1.2s.537-1.2,1.2-1.2,1.2.537,1.2,1.2h0c0,.663-.537,1.2-1.2,1.2"/>
  <path class="st12" d="M6.54,88.745c-.001-1.09-.885-1.974-1.975-1.975H0v.766h0c.667,0,1.208.542,1.209,1.209,0,.668-.541,1.209-1.209,1.21h0v.765h4.565c1.09-.001,1.974-.885,1.975-1.975M4.565,89.945c-.663,0-1.2-.537-1.2-1.2s.537-1.2,1.2-1.2,1.2.537,1.2,1.2h0c0,.663-.537,1.2-1.2,1.2"/>
  <path class="st12" d="M6.54,93.97H0v.766h0c.668,0,1.209.543,1.208,1.212,0,.667-.541,1.208-1.208,1.208h0v.765h6.54v-3.951ZM4.565,97.143c-.663,0-1.2-.537-1.2-1.2s.537-1.2,1.2-1.2,1.2.537,1.2,1.2h0c0,.663-.537,1.2-1.2,1.2"/>
  <path class="st12" d="M6.54,103.146c-.001-1.09-.885-1.974-1.975-1.976H0v.766h0c.668.001,1.208.542,1.209,1.21,0,.667-.542,1.208-1.209,1.209h0v.766h4.565c1.09-.002,1.973-.885,1.975-1.975M4.565,104.346c-.663,0-1.2-.537-1.2-1.2s.537-1.2,1.2-1.2,1.2.537,1.2,1.2h0c0,.663-.537,1.2-1.2,1.2"/>
  <path class="st12" d="M6.54,110.346c-.001-1.09-.885-1.974-1.975-1.976H0v.766h0c.668.001,1.208.542,1.209,1.21,0,.667-.542,1.208-1.209,1.209h0v.765h4.565c1.09,0,1.974-.884,1.975-1.974M4.565,111.546c-.663,0-1.2-.537-1.2-1.2s.537-1.2,1.2-1.2,1.2.537,1.2,1.2h0c0,.663-.537,1.2-1.2,1.2"/>
  <path class="st12" d="M6.54,117.546c-.001-1.09-.885-1.974-1.975-1.976H0v.766h0c.668.001,1.208.542,1.209,1.21,0,.667-.542,1.208-1.209,1.209h0v.765h4.565c1.09,0,1.974-.884,1.975-1.974M4.565,118.746c-.663,0-1.2-.537-1.2-1.2s.537-1.2,1.2-1.2,1.2.537,1.2,1.2h0c0,.663-.537,1.2-1.2,1.2"/>
  <path class="st12" d="M6.54,124.746c-.001-1.09-.885-1.974-1.975-1.976H0v.766h0c.668.001,1.208.542,1.209,1.21,0,.667-.542,1.208-1.209,1.209h0v.765h4.565c1.09,0,1.974-.884,1.975-1.974M4.565,125.946c-.663,0-1.2-.537-1.2-1.2s.537-1.2,1.2-1.2,1.2.537,1.2,1.2h0c0,.663-.537,1.2-1.2,1.2"/>
  <path class="st12" d="M6.54,129.971H0v.766h0c.667,0,1.208.542,1.209,1.209,0,.668-.541,1.209-1.209,1.21h0v.765h6.54v-3.95ZM4.565,133.143c-.663,0-1.2-.537-1.2-1.2s.537-1.2,1.2-1.2,1.2.537,1.2,1.2h0c0,.663-.537,1.2-1.2,1.2"/>
  <path class="st12" d="M6.54,139.146c-.001-1.09-.885-1.974-1.975-1.975H0v.766h0c.667,0,1.208.542,1.209,1.209,0,.668-.541,1.209-1.209,1.21h0v.765h4.565c1.09-.001,1.974-.885,1.975-1.975M4.565,140.346c-.663,0-1.2-.537-1.2-1.2s.537-1.2,1.2-1.2,1.2.537,1.2,1.2h0c0,.663-.537,1.2-1.2,1.2"/>
  <path class="st12" d="M6.54,146.345c-.001-1.09-.885-1.974-1.975-1.975H0v.766h0c.667,0,1.208.542,1.209,1.209,0,.668-.541,1.209-1.209,1.21h0v.765h4.565c1.09-.001,1.974-.885,1.975-1.975M4.565,147.545c-.663,0-1.2-.537-1.2-1.2s.537-1.2,1.2-1.2,1.2.537,1.2,1.2h0c0,.663-.537,1.2-1.2,1.2"/>
  <path class="st12" d="M54.965,18.721h4.564v-.766c-.668.019-1.225-.507-1.244-1.175s.507-1.225,1.175-1.244c.023,0,.046,0,.07,0v-.766h-4.564c-1.091.025-1.956.929-1.931,2.02.024,1.056.875,1.907,1.931,1.931M53.765,16.745c0-.663.537-1.2,1.2-1.2.663,0,1.2.537,1.2,1.2s-.537,1.2-1.2,1.2-1.2-.537-1.2-1.2h0"/>
  <path class="st12" d="M52.99,25.921h6.539v-.766c-.668.019-1.225-.507-1.244-1.175-.019-.668.507-1.225,1.175-1.244.023,0,.046,0,.07,0v-.766h-6.539v3.951ZM53.768,23.946c0-.663.537-1.2,1.2-1.2s1.2.537,1.2,1.2-.537,1.2-1.2,1.2-1.2-.537-1.2-1.2h0"/>
  <path class="st12" d="M54.965,33.12h4.564v-.765c-.668.019-1.225-.507-1.244-1.175-.019-.668.507-1.225,1.175-1.244.023,0,.046,0,.07,0v-.767h-4.564c-1.091.025-1.956.929-1.931,2.02.024,1.056.875,1.907,1.931,1.931M53.765,31.145c0-.663.537-1.2,1.2-1.2.663,0,1.2.537,1.2,1.2,0,.663-.537,1.2-1.2,1.2h0c-.663,0-1.2-.537-1.2-1.2h0"/>
  <path class="st12" d="M54.965,40.32h4.564v-.766c-.668.019-1.225-.507-1.244-1.175s.507-1.225,1.175-1.244c.023,0,.046,0,.07,0v-.766h-4.564c-1.091.025-1.956.929-1.931,2.02.024,1.056.875,1.907,1.931,1.931M53.765,38.345c0-.663.537-1.2,1.2-1.2s1.2.537,1.2,1.2-.537,1.2-1.2,1.2-1.2-.537-1.2-1.2h0"/>
  <path class="st12" d="M54.965,47.52h4.564v-.766c-.668.019-1.225-.507-1.244-1.175s.507-1.225,1.175-1.244c.023,0,.046,0,.07,0v-.766h-4.564c-1.091.025-1.956.929-1.931,2.02.024,1.056.875,1.907,1.931,1.931M53.765,45.545c0-.663.537-1.2,1.2-1.2s1.2.537,1.2,1.2-.537,1.2-1.2,1.2-1.2-.537-1.2-1.2h0"/>
  <path class="st12" d="M54.965,54.72h4.564v-.766c-.668.019-1.225-.507-1.244-1.175s.507-1.225,1.175-1.244c.023,0,.046,0,.07,0v-.766h-4.564c-1.091.025-1.956.929-1.931,2.02.024,1.056.875,1.907,1.931,1.931M53.765,52.745c0-.663.537-1.2,1.2-1.2s1.2.537,1.2,1.2-.537,1.2-1.2,1.2-1.2-.537-1.2-1.2h0"/>
  <path class="st12" d="M52.99,61.92h6.539v-.766c-.668.019-1.225-.507-1.244-1.175s.507-1.225,1.175-1.244c.023,0,.046,0,.07,0v-.766h-6.539v3.951ZM53.768,59.945c0-.663.537-1.2,1.2-1.2s1.2.537,1.2,1.2-.537,1.2-1.2,1.2-1.2-.537-1.2-1.2h0"/>
  <path class="st12" d="M54.965,69.121h4.564v-.766c-.668.019-1.225-.507-1.244-1.175-.019-.668.507-1.225,1.175-1.244.023,0,.046,0,.07,0v-.766h-4.564c-1.091.025-1.956.929-1.931,2.02.024,1.056.875,1.907,1.931,1.931M53.765,67.145c0-.663.537-1.2,1.2-1.2s1.2.537,1.2,1.2c0,.663-.537,1.2-1.2,1.2h0c-.663,0-1.2-.537-1.2-1.2"/>
  <path class="st12" d="M54.965,76.321h4.564v-.766c-.668.019-1.225-.507-1.244-1.175-.019-.668.507-1.225,1.175-1.244.023,0,.046,0,.07,0v-.766h-4.564c-1.091.025-1.956.929-1.931,2.02.024,1.056.875,1.907,1.931,1.931M53.765,74.345c0-.663.537-1.2,1.2-1.2s1.2.537,1.2,1.2c0,.663-.537,1.2-1.2,1.2h0c-.663,0-1.2-.537-1.2-1.2"/>
  <path class="st12" d="M54.965,83.521h4.564v-.766c-.668.019-1.225-.507-1.244-1.175-.019-.668.507-1.225,1.175-1.244.023,0,.046,0,.07,0v-.767h-4.564c-1.091,0-1.976.885-1.976,1.976s.885,1.976,1.976,1.976M53.765,81.545c0-.663.537-1.2,1.2-1.2s1.2.537,1.2,1.2c0,.663-.537,1.2-1.2,1.2h0c-.663,0-1.2-.537-1.2-1.2"/>
  <path class="st12" d="M54.965,90.721h4.564v-.767c-.668.019-1.225-.507-1.244-1.175-.019-.668.507-1.225,1.175-1.244.023,0,.046,0,.07,0v-.766h-4.564c-1.091,0-1.976.885-1.976,1.976s.885,1.976,1.976,1.976M53.765,88.745c0-.663.537-1.2,1.2-1.2s1.2.537,1.2,1.2c0,.663-.537,1.2-1.2,1.2h0c-.663,0-1.2-.537-1.2-1.2"/>
  <path class="st12" d="M52.99,97.92h6.539v-.766c-.668.019-1.225-.507-1.244-1.175-.019-.668.507-1.225,1.175-1.244.023,0,.046,0,.07,0v-.766h-6.539v3.951ZM53.768,95.945c0-.663.537-1.2,1.2-1.2s1.2.537,1.2,1.2c0,.663-.537,1.2-1.2,1.2h0c-.663,0-1.2-.537-1.2-1.2"/>
  <path class="st12" d="M54.965,105.12h4.564v-.766c-.668.019-1.225-.507-1.244-1.175-.019-.668.507-1.225,1.175-1.244.023,0,.046,0,.07,0v-.766h-4.564c-1.091.025-1.956.929-1.931,2.02.024,1.056.875,1.907,1.931,1.931M53.765,103.145c0-.663.537-1.2,1.2-1.2s1.2.537,1.2,1.2c0,.663-.537,1.2-1.2,1.2h0c-.663,0-1.2-.537-1.2-1.2"/>
  <path class="st12" d="M54.965,112.321h4.564v-.766c-.668.019-1.225-.507-1.244-1.175-.019-.668.507-1.225,1.175-1.244.023,0,.046,0,.07,0v-.766h-4.564c-1.091.025-1.956.929-1.931,2.02.024,1.056.875,1.907,1.931,1.931M53.765,110.346c0-.663.537-1.2,1.2-1.2s1.2.537,1.2,1.2c0,.663-.537,1.2-1.2,1.2h0c-.663,0-1.2-.537-1.2-1.2"/>
  <path class="st12" d="M54.965,119.521h4.564v-.766c-.668.019-1.225-.507-1.244-1.175-.019-.668.507-1.225,1.175-1.244.023,0,.046,0,.07,0v-.766h-4.564c-1.091.025-1.956.929-1.931,2.02.024,1.056.875,1.907,1.931,1.931M53.765,117.546c0-.663.537-1.2,1.2-1.2s1.2.537,1.2,1.2c0,.663-.537,1.2-1.2,1.2h0c-.663,0-1.2-.537-1.2-1.2"/>
  <path class="st12" d="M54.965,126.721h4.564v-.766c-.668.019-1.225-.507-1.244-1.175-.019-.668.507-1.225,1.175-1.244.023,0,.046,0,.07,0v-.766h-4.564c-1.091.025-1.956.929-1.931,2.02.024,1.056.875,1.907,1.931,1.931M53.765,124.746c0-.663.537-1.2,1.2-1.2s1.2.537,1.2,1.2c0,.663-.537,1.2-1.2,1.2h0c-.663,0-1.2-.537-1.2-1.2"/>
  <path class="st12" d="M52.99,133.921h6.539v-.766c-.668.019-1.225-.507-1.244-1.175-.019-.668.507-1.225,1.175-1.244.023,0,.046,0,.069,0v-.766h-6.539v3.951ZM53.768,131.945c0-.663.537-1.2,1.2-1.2.663,0,1.2.537,1.2,1.2,0,.663-.537,1.2-1.2,1.2h0c-.663,0-1.2-.537-1.2-1.2"/>
  <path class="st12" d="M54.965,141.121h4.564v-.766c-.668.019-1.225-.507-1.244-1.175-.019-.668.507-1.225,1.175-1.244.023,0,.046,0,.069,0v-.766h-4.564c-1.091.025-1.956.929-1.931,2.02.024,1.057.875,1.907,1.931,1.931M53.765,139.145c0-.663.537-1.2,1.2-1.2.663,0,1.2.537,1.2,1.2,0,.663-.537,1.2-1.2,1.2h0c-.663,0-1.2-.537-1.2-1.2"/>
  <path class="st12" d="M54.965,148.321h4.564v-.766c-.668.019-1.225-.507-1.244-1.175-.019-.668.507-1.225,1.175-1.244.023,0,.046,0,.069,0v-.767h-4.564c-1.091.002-1.975.888-1.973,1.979.002,1.089.884,1.972,1.973,1.973M53.765,146.345c0-.663.537-1.2,1.2-1.2.663,0,1.2.537,1.2,1.2,0,.663-.537,1.2-1.2,1.2h0c-.663,0-1.2-.537-1.2-1.2"/>
  <path class="st12" d="M22.565,144.368c-1.09.002-1.974.885-1.976,1.975v3.9h.766c0-.668.542-1.21,1.21-1.21.668,0,1.21.542,1.21,1.21h0s.765,0,.765,0v-3.9c-.002-1.09-.885-1.973-1.975-1.975M23.765,146.344c0,.663-.537,1.2-1.2,1.2-.663,0-1.2-.537-1.2-1.2,0-.663.537-1.2,1.2-1.2h0c.663,0,1.2.537,1.2,1.2"/>
  <path class="st12" d="M27.788,144.43v5.809h.766c-.019-.668.507-1.225,1.175-1.244.668-.019,1.225.507,1.244,1.175,0,.023,0,.046,0,.07h.765v-5.809h-3.95ZM30.961,146.344c0,.663-.537,1.2-1.2,1.2-.663,0-1.2-.537-1.2-1.2,0-.663.537-1.2,1.2-1.2h0c.663,0,1.2.537,1.2,1.2"/>
  <path class="st12" d="M36.966,144.368c-1.09.002-1.974.885-1.976,1.975v3.9h.766c-.019-.668.507-1.225,1.175-1.244s1.225.507,1.244,1.175c0,.023,0,.046,0,.07h.765v-3.9c-.001-1.09-.884-1.973-1.974-1.975M38.166,146.344c0,.663-.537,1.2-1.2,1.2-.663,0-1.2-.537-1.2-1.2,0-.663.537-1.2,1.2-1.2h0c.663,0,1.2.537,1.2,1.2"/>
  <path class="st12" d="M54.965,11.52h4.564v-.766c-.668.019-1.225-.507-1.244-1.175-.019-.668.507-1.225,1.175-1.244.023,0,.046,0,.07,0v-.766h-4.564c-1.091.025-1.956.929-1.931,2.02.024,1.056.875,1.907,1.931,1.931M53.765,9.544c0-.663.537-1.2,1.2-1.2.663,0,1.2.537,1.2,1.2s-.537,1.2-1.2,1.2-1.2-.537-1.2-1.2h0"/>
  <path class="st12" d="M6.54,9.544c-.001-1.09-.885-1.974-1.975-1.975H0v.766h0c.668,0,1.21.541,1.211,1.209h0c0,.668-.543,1.21-1.211,1.21h0v.765h4.565c1.09-.001,1.974-.885,1.975-1.975M4.565,10.744c-.663,0-1.2-.537-1.2-1.2s.537-1.2,1.2-1.2c.663,0,1.2.537,1.2,1.2s-.537,1.2-1.2,1.2"/>
  <path class="st12" d="M13.622,148.949c-2.496,0-4.52-2.024-4.52-4.52,0-2.496,2.024-4.52,4.52-4.52s4.52,2.024,4.52,4.52h0c-.003,2.496-2.025,4.518-4.52,4.52M13.622,141.91c-1.392,0-2.52,1.128-2.52,2.52s1.128,2.52,2.52,2.52,2.52-1.128,2.52-2.52c-.002-1.391-1.129-2.518-2.52-2.52"/>
  <path class="st12" d="M45.908,148.949c-2.496,0-4.52-2.024-4.52-4.52s2.024-4.52,4.52-4.52,4.52,2.024,4.52,4.52h0c-.003,2.496-2.025,4.517-4.52,4.52M45.908,141.91c-1.392,0-2.52,1.128-2.52,2.52s1.128,2.52,2.52,2.52,2.52-1.128,2.52-2.52c-.002-1.391-1.129-2.518-2.52-2.52"/>
  <path class="st12" d="M13.622,16c-2.496,0-4.52-2.024-4.52-4.52,0-2.496,2.024-4.52,4.52-4.52s4.52,2.024,4.52,4.52h0c-.003,2.496-2.025,4.518-4.52,4.52M13.622,8.961c-1.391,0-2.519,1.129-2.518,2.52,0,1.391,1.129,2.519,2.52,2.518,1.39,0,2.517-1.128,2.518-2.518-.001-1.391-1.129-2.519-2.52-2.52"/>
  <path class="st12" d="M45.908,16c-2.496,0-4.52-2.024-4.52-4.52s2.024-4.52,4.52-4.52,4.52,2.024,4.52,4.52h0c-.003,2.496-2.025,4.517-4.52,4.52M45.908,8.961c-1.391,0-2.519,1.129-2.518,2.52,0,1.391,1.129,2.519,2.52,2.518,1.39,0,2.517-1.128,2.518-2.518-.001-1.391-1.129-2.519-2.52-2.52"/>
  <rect class="st1" x="19.778" y="67.967" width="19.975" height="19.974"/>
  <path class="st0" d="M39.12,17.009h-18.709c-.313,0-.567-.254-.567-.567V2.506c0-.313.253-.566.566-.566,0,0,0,0,0,0h18.709c.313,0,.566.253.566.566v13.936c0,.313-.253.566-.566.567"/>
  <path class="st6" d="M21.264,0c-.249,0-.469.162-.542.4l-.312,1.03-.567.57v14.441c0,.313.253.567.566.568h3.461c.156,0,.283-.127.284-.283v-.826c0-.208-.113-.4-.295-.5l-1.926-1.052c-.183-.1-.296-.292-.295-.5v-.827h1.262v-.951h1.94v.953h1.144v1.971c0,.313.253.567.566.568,0,0,0,0,0,0h.919v-1.023h4.59v1.023h.92c.313,0,.567-.255.566-.568v-1.971h1.144v-.953h1.944v.953h1.258v.827c0,.209-.115.401-.3.5l-1.921,1.05c-.184.099-.3.291-.3.5v.829c0,.156.128.283.284.283h3.459c.314,0,.568-.254.568-.568h0V2l-.568-.567-.305-1.033C38.736.162,38.515,0,38.266,0h-17.002Z"/>
  <path class="st6" d="M20.465,2.883c-.262-.336-.506-.687-.729-1.05-.118-.194-.218-.398-.3-.61-.078-.21-.14-.425-.184-.644-.048-.181.06-.368.241-.416.18-.048.364.058.415.237h0c.115.349.292.675.523.962.248.302.511.591.79.865h0c.193.197.19.514-.007.708-.197.193-.514.19-.708-.008h0c-.015-.016-.03-.032-.043-.05"/>
  <path class="st6" d="M38.308,2.229c.279-.274.542-.562.79-.864.23-.288.407-.615.522-.965h0c.059-.178.252-.275.43-.216.165.055.262.225.225.395-.043.219-.105.434-.184.643-.082.212-.182.416-.3.61-.223.363-.467.714-.729,1.05-.165.221-.479.266-.7.101-.221-.165-.266-.479-.101-.7,0,0,0,0,0,0,.013-.017.026-.033.041-.048l.005-.005Z"/>
  <path class="st6" d="M26.781,105.98h-7.37c-.313,0-.567-.254-.567-.567h0v-4.535c0-.313.254-.567.567-.567h7.37c.313,0,.567.254.567.567h0v4.535c0,.313-.254.567-.567.567h0"/>
  <rect class="st7" x="16.202" y="54.3" width="5.669" height="8.504"/>
  <rect class="st7" x="34.24" y="31.853" width="7.087" height="7.087"/>
  <rect class="st7" x="44.467" y="19.591" width="4.252" height="7.086"/>
  <path class="st10" d="M16.093,32.836h7.37c.313,0,.566.253.567.566v10.2c0,.313-.253.567-.566.568h-7.371c-.313,0-.567-.254-.567-.567,0,0,0,0,0-.001v-10.202c0-.313.254-.566.567-.566"/>
  <path class="st4" d="M19.778,33.544h0c1.957,0,3.544,1.587,3.544,3.544v2.835c-.033,1.957-1.646,3.517-3.603,3.484-1.911-.032-3.452-1.573-3.484-3.484v-2.835c0-1.957,1.586-3.543,3.543-3.544"/>
  <path class="st4" d="M15.526,33.4v1.064c0,.313.255.567.568.566.15,0,.294-.06.4-.166l1.064-1.064c.221-.221.222-.579.002-.8-.106-.107-.251-.167-.402-.167h-1.065c-.313,0-.566.253-.567.566"/>
  <path class="st4" d="M23.463,32.836h-1.063c-.313,0-.567.255-.566.568,0,.15.06.294.166.4l1.065,1.064c.221.221.579.222.8.002.107-.106.167-.251.167-.402v-1.068c0-.312-.254-.565-.566-.566"/>
  <path class="st4" d="M24.03,43.577v-1.064c0-.313-.255-.567-.568-.566-.15,0-.294.06-.4.166l-1.062,1.064c-.221.221-.222.579-.002.8.106.107.251.167.402.167h1.066c.313,0,.566-.254.566-.567"/>
  <path class="st4" d="M16.093,44.145h1.064c.313,0,.567-.255.566-.568,0-.15-.06-.294-.166-.4l-1.065-1.064c-.221-.221-.579-.222-.8-.002-.107.106-.167.251-.167.402v1.065c0,.313.254.567.567.567h0"/>
  <path class="st7" d="M43.757,38.373v-5.953c0-.313.254-.567.567-.567h4.536c.313,0,.567.254.567.567h0v5.953c0,.313-.254.567-.567.567h-4.536c-.313,0-.567-.254-.567-.567h0"/>
  <rect class="st6" x="34.948" y="40.195" width="5.67" height="4.252"/>
  <rect class="st6" x="40.618" y="47.935" width="2.835" height="5.67"/>
  <rect class="st7" x="40.618" y="48.927" width="2.835" height="3.686"/>
  <rect class="st6" x="34.948" y="26.269" width="5.67" height="4.252"/>
  <rect class="st11" x="35.657" y="26.269" width="4.252" height="4.252"/>
  <rect class="st11" x="35.657" y="40.195" width="4.252" height="4.252"/>
  <path class="st12" d="M46.882,131.945c.663,0,1.2.537,1.2,1.2s-.537,1.2-1.2,1.2-1.2-.537-1.2-1.2h0c0-.663.537-1.2,1.2-1.2"/>
  <path class="st12" d="M13.434,25.013c.663,0,1.2.537,1.2,1.2s-.537,1.2-1.2,1.2-1.2-.537-1.2-1.2.537-1.2,1.2-1.2h0"/>
  <rect class="st6" x="20.413" y="25.597" width="2.835" height="1.418"/>
  <rect class="st7" x="20.767" y="25.597" width="2.126" height="1.418"/>
  <rect class="st6" x="47.061" y="62.128" width="1.417" height="2.834"/>
  <rect class="st7" x="47.061" y="62.481" width="1.417" height="2.127"/>
  <rect class="st6" x="47.061" y="62.128" width="1.417" height="2.834"/>
  <rect class="st7" x="45.934" y="55.487" width="4.252" height="1.417"/>
  <rect class="st7" x="47.061" y="62.481" width="1.417" height="2.127"/>
  <rect class="st6" x="44.352" y="62.128" width="1.417" height="2.834"/>
  <rect class="st7" x="44.352" y="62.481" width="1.417" height="2.127"/>
  <rect class="st6" x="41.643" y="62.128" width="1.417" height="2.834"/>
  <rect class="st12" x="41.643" y="62.481" width="1.417" height="2.127"/>
  <rect class="st6" x="33.13" y="62.481" width="1.063" height="2.127"/>
  <rect class="st7" x="33.13" y="62.836" width="1.063" height="1.418"/>
  <rect class="st6" x="31.099" y="62.481" width="1.062" height="2.127"/>
  <rect class="st7" x="31.099" y="62.836" width="1.062" height="1.418"/>
  <rect class="st6" x="29.067" y="62.481" width="1.063" height="2.127"/>
  <rect class="st12" x="29.067" y="62.836" width="1.063" height="1.418"/>
  <rect class="st6" x="46.062" y="48.906" width="1.062" height="2.126"/>
  <rect class="st12" x="46.062" y="49.261" width="1.062" height="1.417"/>
  <rect class="st6" x="27.035" y="62.481" width="1.062" height="2.127"/>
  <rect class="st12" x="27.035" y="62.836" width="1.062" height="1.418"/>
  <rect class="st6" x="16.18" y="50.77" width="1.062" height="2.126"/>
  <rect class="st12" x="16.18" y="51.124" width="1.062" height="1.417"/>
  <rect class="st6" x="31.13" y="91.653" width="1.063" height="2.126"/>
  <rect class="st12" x="31.13" y="92.008" width="1.063" height="1.417"/>
  <rect class="st6" x="29.099" y="91.653" width="1.062" height="2.126"/>
  <rect class="st12" x="29.099" y="92.008" width="1.062" height="1.417"/>
  <rect class="st6" x="29.099" y="100.311" width="1.062" height="2.126"/>
  <rect class="st12" x="29.099" y="100.665" width="1.062" height="1.418"/>
  <rect class="st6" x="15.826" y="103.854" width="1.062" height="2.126"/>
  <rect class="st12" x="15.826" y="104.209" width="1.062" height="1.417"/>
  <rect class="st6" x="37.785" y="62.128" width="1.417" height="2.834"/>
  <rect class="st12" x="37.785" y="62.481" width="1.417" height="2.127"/>
  <rect class="st6" x="35.076" y="62.128" width="1.417" height="2.834"/>
  <rect class="st12" x="35.076" y="62.481" width="1.417" height="2.127"/>
  <rect class="st6" x="20.413" y="23.134" width="2.835" height="1.417"/>
  <rect class="st7" x="20.767" y="23.134" width="2.126" height="1.417"/>
  <rect class="st6" x="36.366" y="23.134" width="2.835" height="1.417"/>
  <rect class="st7" x="36.72" y="23.134" width="2.126" height="1.417"/>
  <rect class="st6" x="13.425" y="54.3" width="1.417" height="2.835"/>
  <rect class="st7" x="13.425" y="54.654" width="1.417" height="2.126"/>
  <rect class="st6" x="13.425" y="59.97" width="1.417" height="2.834"/>
  <rect class="st7" x="13.425" y="60.323" width="1.417" height="2.127"/>
  <rect class="st6" x="48.42" y="47.935" width="1.417" height="2.835"/>
  <rect class="st7" x="48.42" y="48.289" width="1.417" height="2.126"/>
  <rect class="st6" x="41.379" y="69.121" width="2.126" height="1.062"/>
  <rect class="st12" x="41.733" y="69.121" width="1.418" height="1.062"/>
  <rect class="st6" x="15.825" y="70.214" width="2.126" height="1.062"/>
  <rect class="st12" x="16.179" y="70.214" width="1.417" height="1.062"/>
  <rect class="st6" x="15.825" y="80.718" width="2.126" height="1.063"/>
  <rect class="st12" x="16.179" y="80.718" width="1.417" height="1.063"/>
  <rect class="st6" x="42.423" y="81.151" width="1.063" height="2.126" transform="translate(-45.553 54.453) rotate(-45)"/>
  <rect class="st12" x="42.424" y="81.505" width="1.063" height="1.417" transform="translate(-45.571 54.513) rotate(-45.038)"/>
  <rect class="st6" x="45.408" y="78.439" width="2.835" height="1.418"/>
  <rect class="st7" x="45.763" y="78.439" width="2.126" height="1.418"/>
  <rect class="st6" x="45.408" y="78.439" width="2.835" height="1.418"/>
  <rect class="st7" x="45.763" y="78.439" width="2.126" height="1.418"/>
  <rect class="st6" x="45.408" y="75.731" width="2.835" height="1.417"/>
  <rect class="st7" x="45.763" y="75.731" width="2.126" height="1.417"/>
  <rect class="st6" x="14.762" y="67.503" width="2.835" height="1.418"/>
  <rect class="st12" x="15.116" y="67.503" width="2.126" height="1.418"/>
  <rect class="st6" x="24.919" y="96.647" width="2.834" height="1.417"/>
  <rect class="st7" x="25.272" y="96.647" width="2.126" height="1.417"/>
  <rect class="st6" x="24.919" y="96.647" width="2.834" height="1.417"/>
  <rect class="st7" x="25.272" y="96.647" width="2.126" height="1.417"/>
  <path class="st4" d="M38.427,121.829l-.207-.309c.14-1.709-.811-3.321-2.374-4.026.362-.1.775-.207.878-.671.43-.038.785-.352.877-.774.155-.1.775-.465.671-.98.332-.18.502-.562.413-.929.361-.361.464-.671.31-.981.313-.269.348-.741.079-1.053-.009-.01-.018-.021-.028-.031.31-.567.052-1.187-.826-1.084-.316-.338-.782-.493-1.238-.413-.206-.233-.524-.332-.826-.257-.322-.263-.772-.302-1.135-.1-.465-.361-.774-.052-1.136.052-.567-.206-.722.052-.98.155-.619-.155-.825.154-1.135.465h-.361c-.76.546-1.322,1.325-1.6,2.219-.225-.92-.798-1.716-1.6-2.219h-.362c-.309-.311-.464-.568-1.135-.465-.257-.1-.413-.361-.98-.155-.234-.093-.476-.162-.723-.206-.166.011-.325.064-.465.154-.363-.202-.812-.163-1.134.1-.517-.052-.723.051-.826.257-.1,0-.877-.1-1.239.413-.878-.1-1.135.516-.826,1.084-.274.317-.252.794.052,1.084-.154.31-.052.62.309.981-.077.366.089.741.413.929-.051.567.517.877.671.98.052.31.207.619.878.774.1.464.516.568.877.671-1.554.715-2.5,2.32-2.374,4.026l-.207.309c-1.823,1.214-2.318,3.676-1.104,5.499.115.172.243.336.383.488.143.616.332,1.219.567,1.806.247,1.578,1.306,2.911,2.787,3.509.801.623,1.688,1.128,2.632,1.5.835.913,2.014,1.437,3.251,1.445h.052c1.238-.009,2.416-.532,3.252-1.445.959-.34,1.85-.848,2.631-1.5,1.506-.565,2.577-1.914,2.787-3.509.235-.587.425-1.19.568-1.806,1.543-1.423,1.64-3.827.217-5.37-.218-.236-.464-.443-.734-.617M37.343,121.416c-.051.929-5.006-3.3-4.18-3.458,2.322-.361,4.232.981,4.18,3.458M35.125,126.116c-1.412.78-3.189.272-3.975-1.136-.984-1.255-.765-3.07.49-4.055.009-.007.018-.014.027-.021,1.411-.781,3.187-.274,3.973,1.134.987,1.245.778,3.054-.467,4.04-.016.013-.032.025-.048.038M31.718,111.511c.052.206.1.361.155.361.248-.317.524-.611.826-.878,0,.156-.1.362.1.465.222-.263.483-.489.775-.671-.155.258-.052.362.051.465.282-.27.616-.481.981-.62-.155.155-.31.31-.1.517.364-.228.766-.385,1.188-.465-.155.155-.465.309-.258.465.371-.116.75-.203,1.135-.259-.206.155-.361.31-.206.465.428-.159.889-.212,1.342-.155l-.31.31c.393.059.791.076,1.187.052-.206.281-.363.595-.464.928.051.052.309,0,.515,0-.257.516-.671.62-.722.826.175.103.392.103.567,0-.154.361-.516.568-.825.878.052.051.206.1.515.051-.287.283-.598.542-.928.774.168.049.341.083.515.1-.364.289-.762.532-1.186.723.151.102.338.138.516.1-.38.243-.799.417-1.239.516.1.155.155.155.362.206-.465.259-1.188.155-1.394.259.052.154.155.206.361.31-.774.051-2.889-.052-3.3-1.652,1.385-1.321,2.992-2.387,4.748-3.148-1.879.575-3.63,1.503-5.161,2.735-1.806-.826-.62-2.839.258-3.664M29.967,117.336h0c1.239,0,2.736.878,2.736,1.755,0,.774-1.084,1.394-2.736,1.342-1.651,0-2.735-.775-2.735-1.5,0-.619,1.342-1.652,2.735-1.6M23.722,116.662c.207-.052.259-.052.362-.206-.44-.1-.859-.274-1.239-.516.178.038.365.002.516-.1-.424-.191-.823-.434-1.187-.723.206,0,.464,0,.516-.1-.354-.2-.669-.463-.929-.775.172.05.357.031.516-.051-.301-.267-.577-.56-.825-.877.181.077.386.077.567,0-.1-.206-.515-.362-.722-.826.207,0,.464.051.516,0-.102-.334-.259-.648-.465-.929.397.027.795.009,1.188-.052l-.311-.31c.453-.083.92-.028,1.342.156.155-.1,0-.258-.206-.465.385.056.765.142,1.136.258.154-.155-.1-.31-.259-.464.425.065.83.224,1.187.464.206-.206,0-.362-.1-.516.365.138.698.349.98.619.1-.1.207-.206.052-.464.311.154.578.384.775.67.206-.154.1-.309.1-.464.314.254.591.549.825.877.082-.105.136-.229.156-.361.825.826,2.012,2.839.309,3.612-1.543-1.212-3.291-2.138-5.161-2.734,1.745.781,3.349,1.844,4.748,3.147-.413,1.6-2.529,1.7-3.3,1.652.162-.043.295-.157.362-.31-.49.017-.98-.053-1.446-.206M26.77,117.907c.878.155-4.077,4.387-4.179,3.457-.052-2.476,1.857-3.818,4.179-3.457M21.558,127.351c-1.255-1.204-1.296-3.196-.093-4.451.209-.218.449-.405.712-.555,1.342-.31.465,5.522-.619,5.006M26.151,132.358c-.671.412-2.322.257-3.509-1.394-.774-1.393-.671-2.787-.155-3.2.825-.516,2.116.155,3.1,1.29.877.98,1.29,2.787.567,3.3M29.973,135.192c-1.5.051-2.942-1.187-2.942-1.652,0-.619,1.807-1.136,2.994-1.136,1.187-.05,2.838.362,2.838.981.052.568-1.444,1.807-2.89,1.807M32.967,128.844c-.08,1.578-1.415,2.798-2.994,2.735-1.572.08-2.911-1.129-2.991-2.701,0-.011-.001-.023-.002-.034v-.044c.08-1.577,1.415-2.797,2.993-2.735,1.589-.039,2.919,1.199,2.994,2.787M37.147,131.02c-1.291,1.754-2.993,1.805-3.665,1.342-.671-.621-.154-2.581.775-3.664,1.084-1.188,2.219-1.962,2.993-1.343.696,1.133.657,2.571-.1,3.665M38.285,127.304c-1.084.464-1.961-5.316-.619-5.007,1.507.835,2.052,2.734,1.216,4.241-.158.285-.359.543-.597.766M24.985,126.251c-1.312-.938-1.62-2.76-.688-4.077.708-1.429,2.44-2.013,3.869-1.305.01.005.021.01.031.016,1.313.936,1.621,2.758.689,4.074-.699,1.427-2.423,2.017-3.85,1.317-.017-.008-.034-.017-.05-.025"/>
  <rect class="st8" x="11.473" y="17.009" width="4.252" height="2.835"/>
  <path class="st9" d="M12.946,17.793c.392,0,.709.317.709.709s-.317.709-.709.709-.709-.317-.709-.709h0c0-.391.316-.708.707-.709h.002"/>
  <g>
    <path class="st5" d="M33.271,74.736l-.084-.125c.057-.692-.328-1.344-.96-1.63.146-.042.313-.083.355-.271.174-.016.318-.143.355-.314.063-.042.313-.187.272-.4.135-.073.203-.227.167-.376.145-.146.187-.272.125-.4.126-.107.141-.297.034-.423-.004-.005-.009-.01-.014-.015.126-.231.022-.481-.334-.439-.128-.137-.316-.2-.5-.168-.085-.093-.213-.131-.335-.1-.13-.107-.312-.123-.459-.042-.189-.146-.314-.021-.46.021-.23-.084-.293.021-.4.063-.25-.063-.334.062-.459.187h-.144c-.308.222-.535.538-.648.9-.091-.373-.323-.695-.647-.9h-.147c-.098-.154-.282-.229-.46-.187-.1-.042-.167-.147-.4-.063-.095-.038-.193-.066-.293-.084-.067.005-.132.027-.188.063-.147-.082-.33-.065-.46.042-.209-.021-.293.021-.334.1-.042,0-.355-.042-.5.168-.355-.042-.459.209-.334.439-.111.128-.102.321.021.438-.063.125-.021.251.125.4-.031.149.036.3.168.376-.022.23.209.355.271.4.021.125.083.251.356.314.041.187.209.229.354.271-.629.29-1.011.94-.961,1.63l-.083.125c-.739.491-.939,1.488-.448,2.227.046.07.098.136.155.197.058.249.135.493.23.73.1.639.529,1.179,1.129,1.421.324.252.683.457,1.065.607.339.369.816.581,1.317.585h.02c.501-.004.978-.216,1.317-.585.388-.138.749-.343,1.065-.607.61-.229,1.043-.775,1.128-1.421.095-.237.172-.481.229-.73.625-.573.667-1.545.093-2.17-.089-.097-.19-.182-.301-.254M32.83,74.569c-.02.376-2.026-1.337-1.692-1.4.723-.189,1.462.244,1.651.967.037.141.051.287.041.433M31.93,76.469c-.572.316-1.291.11-1.609-.46-.399-.508-.31-1.244.198-1.643.004-.003.007-.006.011-.008.571-.316,1.291-.111,1.609.46.399.504.315,1.236-.189,1.635-.007.005-.013.011-.02.016M30.551,70.555c.021.084.042.147.063.147.101-.128.213-.247.334-.356,0,.064-.042.147.042.189.089-.107.195-.199.314-.272-.064.1-.022.147.02.188.115-.109.251-.195.4-.251-.063.063-.125.126-.041.21.147-.093.309-.157.48-.189-.063.063-.188.125-.1.189.15-.046.304-.079.459-.1-.083.063-.146.125-.083.188.173-.065.36-.086.543-.063l-.125.125c.159.025.32.032.48.022-.084.114-.148.241-.188.376.021.02.125,0,.208,0-.1.208-.271.25-.292.334.071.042.159.042.23,0-.063.146-.209.229-.334.355.021.021.083.041.208.021-.116.115-.242.219-.376.313.068.02.138.034.209.042-.147.117-.308.215-.48.292.061.042.137.057.209.042-.153.098-.322.169-.5.209.042.063.062.063.146.084-.188.105-.48.063-.564.105.02.062.062.083.146.125-.313.02-1.17-.021-1.337-.669.561-.535,1.211-.966,1.922-1.275-.761.234-1.47.61-2.09,1.108-.73-.334-.25-1.149.105-1.484M29.849,72.922h0c.5,0,1.107.354,1.107.71,0,.313-.438.564-1.107.543-.669,0-1.108-.314-1.108-.606,0-.251.543-.669,1.108-.647M27.32,72.65c.084-.021.105-.021.147-.084-.178-.04-.347-.11-.5-.209.072.016.148,0,.209-.041-.172-.078-.333-.176-.481-.293.083,0,.188,0,.209-.042-.143-.08-.271-.187-.376-.313.069.02.144.013.208-.021-.122-.108-.233-.227-.334-.355.073.032.157.032.23,0-.041-.083-.209-.146-.292-.334.083,0,.187.02.209,0-.041-.135-.105-.262-.189-.376.161.011.322.004.481-.021l-.125-.126c.183-.034.372-.012.543.063.062-.041,0-.1-.083-.188.156.021.31.055.46.1.062-.063-.042-.125-.105-.189.172.027.336.092.481.189.083-.084,0-.147-.042-.209.149.055.285.141.4.251.042-.042.084-.084.022-.189.126.062.233.156.312.272.084-.063.042-.125.042-.188.128.102.24.222.335.355.032-.043.054-.093.063-.146.334.334.814,1.149.125,1.462-.625-.491-1.332-.865-2.089-1.107.706.317,1.355.747,1.922,1.274-.167.649-1.024.69-1.337.669.065-.017.119-.063.146-.125-.199.007-.397-.022-.586-.084M28.559,73.145c.354.063-1.652,1.777-1.693,1.4-.049-.747.517-1.392,1.264-1.441.144-.009.289.004.429.041M26.448,76.969c-.508-.488-.524-1.295-.037-1.803.085-.088.182-.164.288-.224.543-.125.188,2.235-.251,2.027M28.3,78.998c-.548.181-1.146-.057-1.421-.564-.314-.564-.272-1.128-.063-1.3.334-.208.857.064,1.253.523.356.4.523,1.128.231,1.337M27.757,76.529c-.642-.297-.922-1.058-.626-1.7.297-.642,1.058-.922,1.7-.626.642.297.922,1.058.626,1.7-.027.057-.057.113-.092.166-.319.569-1.037.774-1.608.46M29.846,80.143c-.49.015-.948-.243-1.191-.669,0-.25.731-.459,1.211-.459.481-.021,1.15.146,1.15.4.02.229-.585.731-1.17.731M31.058,77.577c-.033.639-.573,1.132-1.212,1.107-.637.033-1.179-.457-1.211-1.094,0-.004,0-.009,0-.013v-.022c.033-.639.573-1.132,1.212-1.107.644-.015,1.182.486,1.212,1.129M32.75,78.454c-.522.71-1.212.731-1.483.543-.272-.25-.063-1.045.313-1.484.439-.48.9-.793,1.211-.542.282.459.266,1.041-.041,1.483M33.209,76.954c-.438.187-.794-2.152-.25-2.026.61.338.83,1.106.492,1.715-.064.116-.146.22-.242.311"/>
    <g>
      <g>
        <path class="st5" d="M22.468,83.476v-1.773h.441c.374,0,.528.229.528.526,0,.214-.08.394-.268.477l.263.771h-.289l-.24-.722h-.167v.722h-.268ZM22.736,82.497h.173c.232,0,.258-.193.258-.268s-.026-.268-.258-.268h-.173v.536Z"/>
        <path class="st5" d="M23.618,83.476v-1.773h.451c.374,0,.528.229.528.526s-.155.526-.528.526h-.183v.722h-.268ZM23.886,82.497h.183c.232,0,.258-.193.258-.268s-.026-.268-.258-.268h-.183v.536Z"/>
        <path class="st5" d="M25.691,82.984v.492h-.954v-.18c0-.361.24-.541.477-.778.082-.082.209-.209.209-.35,0-.095-.018-.235-.206-.235-.209,0-.211.186-.211.26v.103h-.263v-.103c0-.307.144-.523.474-.523.314,0,.474.183.474.497,0,.186-.085.325-.286.526-.186.186-.392.348-.392.515h.425v-.224h.252Z"/>
        <path class="st5" d="M25.861,82.724v-.268h.979v.268h-.979Z"/>
        <path class="st5" d="M27.965,82.925v.082c0,.229-.119.502-.479.502s-.479-.273-.479-.502v-.082c0-.294.162-.4.191-.412-.088-.062-.18-.196-.18-.371,0-.247.16-.472.469-.472s.469.224.469.472c0,.175-.095.309-.18.371.028.013.191.118.191.412ZM27.697,83.007v-.082c0-.165-.088-.25-.211-.25s-.211.085-.211.25v.082c0,.165.088.25.211.25s.211-.085.211-.25ZM27.285,82.151c0,.149.077.229.201.229s.201-.08.201-.229-.077-.229-.201-.229-.201.08-.201.229Z"/>
        <path class="st5" d="M29.095,82.193v.794c0,.307-.155.523-.474.523s-.474-.216-.474-.523v-.794c0-.307.155-.523.474-.523s.474.216.474.523ZM28.407,82.193v.474l.425-.549c0-.082-.057-.191-.211-.191-.209,0-.214.191-.214.265ZM28.834,82.986v-.472l-.423.546c0,.082.054.191.209.191.209,0,.214-.191.214-.265Z"/>
        <path class="st5" d="M32.499,82.984v.492h-.954v-.18c0-.361.24-.541.477-.778.082-.082.209-.209.209-.35,0-.095-.018-.235-.206-.235-.209,0-.211.186-.211.26v.103h-.263v-.103c0-.307.144-.523.474-.523.314,0,.474.183.474.497,0,.186-.085.325-.286.526-.186.186-.392.348-.392.515h.425v-.224h.253Z"/>
        <path class="st5" d="M33.633,82.193v.794c0,.307-.155.523-.474.523s-.474-.216-.474-.523v-.794c0-.307.155-.523.474-.523s.474.216.474.523ZM32.945,82.193v.474l.425-.549c0-.082-.057-.191-.211-.191-.209,0-.214.191-.214.265ZM33.373,82.986v-.472l-.423.546c0,.082.054.191.209.191.209,0,.214-.191.214-.265Z"/>
        <path class="st5" d="M34.103,83.476h-.284l.665-1.773h.284l-.665,1.773Z"/>
        <path class="st5" d="M35.903,82.984v.492h-.954v-.18c0-.361.24-.541.477-.778.082-.082.209-.209.209-.35,0-.095-.018-.235-.206-.235-.209,0-.211.186-.211.26v.103h-.263v-.103c0-.307.144-.523.474-.523.314,0,.474.183.474.497,0,.186-.085.325-.286.526-.186.186-.392.348-.392.515h.425v-.224h.253Z"/>
        <path class="st5" d="M36.115,83.208h.332v-1.031h-.332v-.206c.175,0,.322-.082.332-.268h.284v1.505h.332v.268h-.948v-.268Z"/>
      </g>
      <g>
        <path class="st5" d="M23.421,85.421c0,.335-.152.523-.474.523s-.479-.188-.479-.523v-.175h.263v.175c0,.093.013.265.217.265s.211-.18.211-.273v-1.015h-.608v-.26h.871v1.284Z"/>
        <path class="st5" d="M24.082,84.104c.384,0,.474.281.474.523v.077h-.268v-.077c0-.075-.003-.258-.206-.258s-.206.183-.206.258v.794c0,.075.003.258.206.258s.206-.183.206-.258v-.08h.268v.08c0,.304-.155.523-.474.523-.382,0-.474-.284-.474-.523v-.794c0-.307.155-.523.474-.523Z"/>
        <path class="st5" d="M24.722,85.91l.278-.894-.268-.879h.294l.191.639.191-.639h.294l-.268.879.278.894h-.294l-.201-.67-.201.67h-.294Z"/>
        <path class="st5" d="M26.828,84.599v.028h-.258v-.016c0-.111-.01-.255-.201-.255-.173,0-.214.129-.214.276v.281c.021-.021.103-.09.237-.09.335,0,.454.247.454.559,0,.258-.093.562-.479.562s-.48-.304-.48-.562v-.75c0-.289.121-.528.482-.528.348,0,.459.211.459.495ZM26.575,85.382c0-.224-.08-.302-.209-.302s-.209.077-.209.302.08.302.209.302.209-.077.209-.302Z"/>
        <path class="st5" d="M26.996,85.086l.461-.949h.271l-.461.949h.24l.265-.57v.57h.178v.255h-.178v.237c0,.044.036.08.08.08h.098v.253h-.639v-.253h.116c.044,0,.077-.036.077-.08v-.237h-.508v-.255Z"/>
        <path class="st5" d="M28.461,85.591h.32v.32h-.32v-.32Z"/>
        <path class="st5" d="M30.235,85.359v.082c0,.229-.119.502-.479.502s-.48-.273-.48-.502v-.082c0-.294.162-.4.191-.412-.088-.062-.18-.196-.18-.371,0-.247.16-.472.469-.472s.469.224.469.472c0,.175-.095.309-.18.371.028.013.191.118.191.412ZM29.967,85.441v-.082c0-.165-.088-.25-.211-.25s-.211.085-.211.25v.082c0,.165.088.25.211.25s.211-.085.211-.25ZM29.554,84.586c0,.149.077.229.201.229s.201-.08.201-.229-.077-.229-.201-.229-.201.08-.201.229Z"/>
        <path class="st5" d="M31.364,85.418v.492h-.954v-.18c0-.361.24-.541.477-.778.082-.082.209-.209.209-.35,0-.095-.018-.235-.206-.235-.209,0-.211.186-.211.26v.103h-.263v-.103c0-.307.144-.523.474-.523.314,0,.474.183.474.497,0,.186-.085.325-.286.526-.186.186-.392.348-.392.515h.425v-.224h.253Z"/>
        <path class="st5" d="M31.55,85.431v-.036h.268v.036c0,.17.075.253.209.253.103,0,.209-.057.209-.32s-.106-.325-.209-.325c-.106,0-.173.044-.209.144-.003.005-.003.01-.005.016h-.263v-1.062h.928v.253h-.66v.474c.033-.034.111-.088.237-.088.33,0,.448.281.448.588,0,.469-.247.58-.479.58-.222,0-.474-.101-.474-.513Z"/>
        <path class="st5" d="M33.815,84.137h.959v.276h-.337v1.498h-.284v-1.498h-.338v-.276Z"/>
        <path class="st5" d="M34.949,84.137h.959v.276h-.338v1.498h-.284v-1.498h-.337v-.276Z"/>
        <path class="st5" d="M36.084,84.137h.959v.276h-.338v1.498h-.284v-1.498h-.337v-.276Z"/>
      </g>
    </g>
  </g>
</svg>